<svg xmlns="http://www.w3.org/2000/svg" viewBox="0 0 512 512">
  <rect width="512" height="512" rx="64" fill="#1a1a2e"/>
  <g transform="translate(80, 40) scale(0.7)">
    <!-- Body/wing feathers -->
    <path d="M120 480 C100 460, 60 440, 40 420 Q20 400, 60 390 Q30 370, 70 365 Q40 345, 90 345 Q70 330, 110 330 L160 340 Q200 350, 240 380 L260 400 Z" fill="white"/>
    <!-- Neck -->
    <path d="M240 380 C250 340, 260 300, 280 260 Q300 220, 320 180 Q340 140, 350 100 Q360 70, 370 50 Q380 35, 395 30 Q410 28, 420 35 Q435 45, 430 60 Q425 75, 410 80 L400 82 Q390 80, 385 85 Q375 95, 370 110 Q360 140, 345 180 Q325 220, 305 260 Q285 300, 270 340 Q260 370, 250 390 Z" fill="white"/>
    <!-- Beak -->
    <path d="M420 35 Q435 30, 455 32 Q475 35, 480 42 Q482 48, 475 52 Q465 56, 450 55 Q435 52, 425 48 Q418 44, 420 35 Z" fill="#d4a04a"/>
    <!-- Eye area (white patch on face) -->
    <path d="M375 55 Q385 45, 400 42 Q410 40, 415 45 Q420 52, 415 60 Q408 68, 395 70 Q382 68, 375 62 Z" fill="#1a1a2e"/>
    <!-- Eye -->
    <circle cx="398" cy="54" r="4" fill="white"/>
  </g>
</svg>
